<svg xmlns="http://www.w3.org/2000/svg" width="17" height="15">
    <image width="46" height="48"/>
    <path fill="#FFF"
          d="M10.95.144c1.685-.496 2.984.27 3.577 1.18.673-.232 1.33-.482 2.01-.71a2.345 2.345 0 0 1-.856 1.77c.69.17 1.31-.492 1.31-.492-.17 1-1.005 1.788-1.562 2.024-.23 6.75-3.175 11.217-10.077 11.082H4.9c-.41 0-4.165-.46-4.9-1.887 2.272.2 3.894-.42 4.694-1.17-.96-.3-2.68-.477-2.98-2.95.35.106.565.228 1.19.12C1.704 8.248.374 7.53.45 5.33c.285.328 1.067.536 1.34.472C1.087 5.562-.18 2.442.896.85c1.816 1.854 3.734 3.606 7.15 3.773C8.254 2.33 9.183.793 10.95.143z"/>
</svg>